<svg width="22" height="18" viewBox="0 0 22 18" fill="none" xmlns="http://www.w3.org/2000/svg">
<g filter="url(#filter0_i_1_350)">
<path d="M21.75 2.07599C20.9502 2.42681 20.0909 2.66385 19.1876 2.77099C20.1197 2.21897 20.817 1.35015 21.1494 0.326655C20.2737 0.841491 19.3154 1.20388 18.3159 1.39806C17.6439 0.687772 16.7537 0.216979 15.7836 0.0587781C14.8135 -0.0994228 13.8178 0.0638199 12.951 0.523162C12.0842 0.982504 11.3949 1.71225 10.9901 2.59909C10.5853 3.48593 10.4876 4.48026 10.7122 5.4277C8.93783 5.33952 7.20207 4.88304 5.61751 4.08788C4.03296 3.29272 2.63502 2.17665 1.51443 0.812108C1.13128 1.46633 0.91096 2.22485 0.91096 3.03268C0.910532 3.7599 1.09146 4.47599 1.43769 5.1174C1.78391 5.75882 2.28474 6.30573 2.89572 6.7096C2.18714 6.68728 1.4942 6.49777 0.87456 6.15683V6.21372C0.874488 7.23368 1.23093 8.22226 1.8834 9.01171C2.53587 9.80115 3.44419 10.3428 4.45422 10.5449C3.79689 10.721 3.10774 10.7469 2.4388 10.6207C2.72378 11.4983 3.27888 12.2658 4.02639 12.8156C4.77391 13.3654 5.67642 13.6701 6.60757 13.687C5.02688 14.9153 3.07474 15.5815 1.06518 15.5786C0.709208 15.5787 0.353537 15.5581 0 15.517C2.03982 16.8152 4.41431 17.5041 6.83938 17.5014C15.0486 17.5014 19.5363 10.7715 19.5363 4.93466C19.5363 4.74503 19.5315 4.55351 19.5229 4.36388C20.3958 3.73902 21.1493 2.96526 21.7481 2.07884L21.75 2.07599V2.07599Z" fill="#F1AC73"/>
</g>
<defs>
<filter id="filter0_i_1_350" x="0" y="0" width="21.75" height="20.9597" filterUnits="userSpaceOnUse" color-interpolation-filters="sRGB">
<feFlood flood-opacity="0" result="BackgroundImageFix"/>
<feBlend mode="normal" in="SourceGraphic" in2="BackgroundImageFix" result="shape"/>
<feColorMatrix in="SourceAlpha" type="matrix" values="0 0 0 0 0 0 0 0 0 0 0 0 0 0 0 0 0 0 127 0" result="hardAlpha"/>
<feOffset dy="3.45825"/>
<feGaussianBlur stdDeviation="7.34879"/>
<feComposite in2="hardAlpha" operator="arithmetic" k2="-1" k3="1"/>
<feColorMatrix type="matrix" values="0 0 0 0 0 0 0 0 0 0 0 0 0 0 0 0 0 0 0.25 0"/>
<feBlend mode="normal" in2="shape" result="effect1_innerShadow_1_350"/>
</filter>
</defs>
</svg>
